<svg width="20" height="15" viewBox="0 0 20 15" fill="none" xmlns="http://www.w3.org/2000/svg">
<path d="M19.5579 6.46991L13.3894 0.418272C12.821 -0.139424 11.8736 -0.139424 11.3052 0.418272C10.7367 0.975969 10.7367 1.90536 11.3052 2.46306L14.9474 6.05679H1.47365C0.652597 6.05679 0 6.69703 0 7.50254C0 8.30805 0.652597 8.94829 1.47365 8.94829H14.9474L11.3052 12.5214C10.7367 13.0791 10.7367 14.0085 11.3052 14.5662C11.5999 14.8553 11.9789 15 12.3578 15C12.7367 15 13.1157 14.8554 13.4104 14.5662L19.5578 8.53521C19.8316 8.26666 20 7.89497 20 7.5025C20 7.11004 19.8526 6.73834 19.5578 6.4698L19.5579 6.46991Z" fill="white"/>
</svg>
