<svg width="27" height="27" viewBox="0 0 27 27" fill="none" xmlns="http://www.w3.org/2000/svg">
<path d="M26.0405 21.4763C26.0405 21.9277 25.9402 22.3916 25.727 22.843C25.5139 23.2944 25.238 23.7208 24.8744 24.122C24.26 24.7991 23.5828 25.2882 22.818 25.6016C22.0656 25.9151 21.2506 26.0781 20.3728 26.0781C19.0939 26.0781 17.7271 25.7772 16.2851 25.1628C14.8431 24.5484 13.4011 23.7208 11.9717 22.68C10.5297 21.6268 9.16293 20.4606 7.85886 19.1691C6.56734 17.865 5.40121 16.4983 4.36047 15.0688C3.33226 13.6394 2.50469 12.2099 1.90281 10.793C1.30094 9.36355 1 7.9968 1 6.69273C1 5.84008 1.15047 5.02504 1.45141 4.27269C1.75234 3.50781 2.22883 2.80562 2.8934 2.17867C3.6959 1.38871 4.57363 1 5.50152 1C5.85262 1 6.20371 1.07523 6.51719 1.2257C6.8432 1.37617 7.1316 1.60187 7.3573 1.92789L10.2664 6.02816C10.4921 6.34164 10.6551 6.63004 10.7679 6.9059C10.8808 7.16922 10.9435 7.43254 10.9435 7.67078C10.9435 7.97172 10.8557 8.27265 10.6802 8.56105C10.5171 8.84945 10.2789 9.15039 9.97797 9.45133L9.025 10.4419C8.88707 10.5798 8.82437 10.7429 8.82437 10.9435C8.82437 11.0438 8.83691 11.1316 8.86199 11.2319C8.89961 11.3322 8.93722 11.4074 8.9623 11.4827C9.18801 11.8964 9.57672 12.4356 10.1284 13.0877C10.6927 13.7397 11.2946 14.4043 11.9466 15.0688C12.6237 15.7334 13.2757 16.3478 13.9403 16.9121C14.5923 17.4638 15.1315 17.84 15.5578 18.0657C15.6205 18.0907 15.6958 18.1284 15.7836 18.166C15.8839 18.2036 15.9842 18.2161 16.097 18.2161C16.3102 18.2161 16.4732 18.1409 16.6111 18.003L17.5641 17.0625C17.8776 16.7491 18.1785 16.5108 18.4669 16.3603C18.7553 16.1848 19.0437 16.097 19.3572 16.097C19.5954 16.097 19.8462 16.1472 20.1221 16.26C20.3979 16.3729 20.6863 16.5359 20.9998 16.7491L25.1502 19.6957C25.4762 19.9214 25.7019 20.1848 25.8399 20.4982C25.9653 20.8117 26.0405 21.1252 26.0405 21.4763Z" stroke="white" stroke-width="1.5" stroke-miterlimit="10"/>
</svg>
