<svg width="56" height="56" viewBox="0 0 56 56" fill="none" xmlns="http://www.w3.org/2000/svg">
<rect width="56" height="56" rx="28" fill="#E7B850"/>
<path d="M28 16.5301C31.7108 16.5301 32.2169 16.5301 33.7349 16.5301C35.0843 16.5301 35.759 16.8675 36.2651 17.0361C36.9398 17.3735 37.4458 17.5422 37.9518 18.0482C38.4578 18.5542 38.7952 19.0602 38.9639 19.7349C39.1325 20.241 39.3012 20.9157 39.4699 22.2651C39.4699 23.7831 39.4699 24.1205 39.4699 28C39.4699 31.8795 39.4699 32.2169 39.4699 33.7349C39.4699 35.0843 39.1325 35.759 38.9639 36.2651C38.6265 36.9398 38.4578 37.4458 37.9518 37.9518C37.4458 38.4578 36.9398 38.7952 36.2651 38.9639C35.759 39.1325 35.0843 39.3012 33.7349 39.4699C32.2169 39.4699 31.8795 39.4699 28 39.4699C24.1205 39.4699 23.7831 39.4699 22.2651 39.4699C20.9157 39.4699 20.241 39.1325 19.7349 38.9639C19.0602 38.6265 18.5542 38.4578 18.0482 37.9518C17.5422 37.4458 17.2048 36.9398 17.0361 36.2651C16.8675 35.759 16.6988 35.0843 16.5301 33.7349C16.5301 32.2169 16.5301 31.8795 16.5301 28C16.5301 24.1205 16.5301 23.7831 16.5301 22.2651C16.5301 20.9157 16.8675 20.241 17.0361 19.7349C17.3735 19.0602 17.5422 18.5542 18.0482 18.0482C18.5542 17.5422 19.0602 17.2048 19.7349 17.0361C20.241 16.8675 20.9157 16.6988 22.2651 16.5301C23.7831 16.5301 24.2892 16.5301 28 16.5301ZM28 14C24.1205 14 23.7831 14 22.2651 14C20.747 14 19.7349 14.3374 18.8916 14.6747C18.0482 15.012 17.2048 15.5181 16.3614 16.3614C15.5181 17.2048 15.1807 17.8795 14.6747 18.8916C14.3374 19.7349 14.1687 20.747 14 22.2651C14 23.7831 14 24.2892 14 28C14 31.8795 14 32.2169 14 33.7349C14 35.253 14.3374 36.2651 14.6747 37.1084C15.012 37.9518 15.5181 38.7952 16.3614 39.6386C17.2048 40.4819 17.8795 40.8193 18.8916 41.3253C19.7349 41.6627 20.747 41.8313 22.2651 42C23.7831 42 24.2892 42 28 42C31.7108 42 32.2169 42 33.7349 42C35.253 42 36.2651 41.6627 37.1084 41.3253C37.9518 40.988 38.7952 40.4819 39.6386 39.6386C40.4819 38.7952 40.8193 38.1205 41.3253 37.1084C41.6627 36.2651 41.8313 35.253 42 33.7349C42 32.2169 42 31.7108 42 28C42 24.2892 42 23.7831 42 22.2651C42 20.747 41.6627 19.7349 41.3253 18.8916C40.988 18.0482 40.4819 17.2048 39.6386 16.3614C38.7952 15.5181 38.1205 15.1807 37.1084 14.6747C36.2651 14.3374 35.253 14.1687 33.7349 14C32.2169 14 31.8795 14 28 14Z" fill="white"/>
<path d="M28 20.747C23.9518 20.747 20.747 23.9518 20.747 28C20.747 32.0482 23.9518 35.253 28 35.253C32.0482 35.253 35.253 32.0482 35.253 28C35.253 23.9518 32.0482 20.747 28 20.747ZM28 32.7229C25.4699 32.7229 23.2771 30.6988 23.2771 28C23.2771 25.4699 25.3012 23.2771 28 23.2771C30.5301 23.2771 32.7229 25.3012 32.7229 28C32.7229 30.5301 30.5301 32.7229 28 32.7229Z" fill="white"/>
<path d="M35.4217 22.2651C36.3533 22.2651 37.1084 21.5099 37.1084 20.5783C37.1084 19.6468 36.3533 18.8916 35.4217 18.8916C34.4901 18.8916 33.7349 19.6468 33.7349 20.5783C33.7349 21.5099 34.4901 22.2651 35.4217 22.2651Z" fill="white"/>
</svg>
