<svg width="32" height="32" viewBox="0 0 32 32" fill="none" xmlns="http://www.w3.org/2000/svg">
<circle cx="16" cy="16" r="16" fill="#F6C724"/>
<path d="M24.3082 21.2751C24.3082 21.5751 24.2415 21.8834 24.0998 22.1834C23.9582 22.4834 23.7748 22.7667 23.5332 23.0334C23.1248 23.4834 22.6748 23.8084 22.1665 24.0167C21.6665 24.2251 21.1248 24.3334 20.5415 24.3334C19.6915 24.3334 18.7832 24.1334 17.8248 23.7251C16.8665 23.3167 15.9082 22.7667 14.9582 22.0751C13.9998 21.3751 13.0915 20.6001 12.2248 19.7417C11.3665 18.8751 10.5915 17.9667 9.89984 17.0167C9.2165 16.0667 8.6665 15.1167 8.2665 14.1751C7.8665 13.2251 7.6665 12.3167 7.6665 11.4501C7.6665 10.8834 7.7665 10.3417 7.9665 9.84175C8.1665 9.33341 8.48317 8.86675 8.92484 8.45008C9.45817 7.92508 10.0415 7.66675 10.6582 7.66675C10.8915 7.66675 11.1248 7.71675 11.3332 7.81675C11.5498 7.91675 11.7415 8.06675 11.8915 8.28341L13.8248 11.0084C13.9748 11.2167 14.0832 11.4084 14.1582 11.5917C14.2332 11.7667 14.2748 11.9417 14.2748 12.1001C14.2748 12.3001 14.2165 12.5001 14.0998 12.6917C13.9915 12.8834 13.8332 13.0834 13.6332 13.2834L12.9998 13.9417C12.9082 14.0334 12.8665 14.1417 12.8665 14.2751C12.8665 14.3417 12.8748 14.4001 12.8915 14.4667C12.9165 14.5334 12.9415 14.5834 12.9582 14.6334C13.1082 14.9084 13.3665 15.2667 13.7332 15.7001C14.1082 16.1334 14.5082 16.5751 14.9415 17.0167C15.3915 17.4584 15.8248 17.8667 16.2665 18.2417C16.6998 18.6084 17.0582 18.8584 17.3415 19.0084C17.3832 19.0251 17.4332 19.0501 17.4915 19.0751C17.5582 19.1001 17.6248 19.1084 17.6998 19.1084C17.8415 19.1084 17.9498 19.0584 18.0415 18.9667L18.6748 18.3417C18.8832 18.1334 19.0832 17.9751 19.2748 17.8751C19.4665 17.7584 19.6582 17.7001 19.8665 17.7001C20.0248 17.7001 20.1915 17.7334 20.3748 17.8084C20.5582 17.8834 20.7498 17.9917 20.9582 18.1334L23.7165 20.0917C23.9332 20.2417 24.0832 20.4167 24.1748 20.6251C24.2582 20.8334 24.3082 21.0417 24.3082 21.2751Z" stroke="#2E2E2E" stroke-width="1.5" stroke-miterlimit="10"/>
</svg>
