<svg width="32" height="32" viewBox="0 0 32 32" fill="none" xmlns="http://www.w3.org/2000/svg">
<circle cx="16" cy="16" r="16" fill="#F6C724"/>
<path d="M24.3083 21.275C24.3083 21.575 24.2416 21.8833 24.1 22.1833C23.9583 22.4833 23.775 22.7667 23.5333 23.0333C23.125 23.4833 22.675 23.8083 22.1666 24.0167C21.6666 24.225 21.125 24.3333 20.5416 24.3333C19.6916 24.3333 18.7833 24.1333 17.825 23.725C16.8666 23.3167 15.9083 22.7667 14.9583 22.075C14 21.375 13.0916 20.6 12.225 19.7417C11.3666 18.875 10.5916 17.9667 9.89996 17.0167C9.21663 16.0667 8.66663 15.1167 8.26663 14.175C7.86663 13.225 7.66663 12.3167 7.66663 11.45C7.66663 10.8833 7.76663 10.3417 7.96663 9.84166C8.16663 9.33332 8.48329 8.86666 8.92496 8.44999C9.45829 7.92499 10.0416 7.66666 10.6583 7.66666C10.8916 7.66666 11.125 7.71666 11.3333 7.81666C11.55 7.91666 11.7416 8.06666 11.8916 8.28332L13.825 11.0083C13.975 11.2167 14.0833 11.4083 14.1583 11.5917C14.2333 11.7667 14.275 11.9417 14.275 12.1C14.275 12.3 14.2166 12.5 14.1 12.6917C13.9916 12.8833 13.8333 13.0833 13.6333 13.2833L13 13.9417C12.9083 14.0333 12.8666 14.1417 12.8666 14.275C12.8666 14.3417 12.875 14.4 12.8916 14.4667C12.9166 14.5333 12.9416 14.5833 12.9583 14.6333C13.1083 14.9083 13.3666 15.2667 13.7333 15.7C14.1083 16.1333 14.5083 16.575 14.9416 17.0167C15.3916 17.4583 15.825 17.8667 16.2666 18.2417C16.7 18.6083 17.0583 18.8583 17.3416 19.0083C17.3833 19.025 17.4333 19.05 17.4916 19.075C17.5583 19.1 17.625 19.1083 17.7 19.1083C17.8416 19.1083 17.95 19.0583 18.0416 18.9667L18.675 18.3417C18.8833 18.1333 19.0833 17.975 19.275 17.875C19.4666 17.7583 19.6583 17.7 19.8666 17.7C20.025 17.7 20.1916 17.7333 20.375 17.8083C20.5583 17.8833 20.75 17.9917 20.9583 18.1333L23.7166 20.0917C23.9333 20.2417 24.0833 20.4167 24.175 20.625C24.2583 20.8333 24.3083 21.0417 24.3083 21.275Z" stroke="white" stroke-width="1.5" stroke-miterlimit="10"/>
</svg>
