<svg width="28" height="28" viewBox="0 0 28 28" fill="none" xmlns="http://www.w3.org/2000/svg">
<g opacity="0.5">
<path d="M24.5 6.97667C20.615 6.59167 16.7067 6.39333 12.81 6.39333C10.5 6.39333 8.19 6.51 5.88 6.74333L3.5 6.97667" stroke="#2E2E2E" stroke-width="1.5" stroke-linecap="round" stroke-linejoin="round"/>
<path d="M9.9165 5.79833L10.1732 4.27C10.3598 3.16167 10.4998 2.33333 12.4715 2.33333H15.5282C17.4998 2.33333 17.6515 3.20833 17.8265 4.28167L18.0832 5.79833" stroke="#2E2E2E" stroke-width="1.5" stroke-linecap="round" stroke-linejoin="round"/>
<path d="M21.9916 10.6633L21.2333 22.4117C21.105 24.2433 21 25.6667 17.745 25.6667H10.255C6.99997 25.6667 6.89497 24.2433 6.76663 22.4117L6.0083 10.6633" stroke="#2E2E2E" stroke-width="1.5" stroke-linecap="round" stroke-linejoin="round"/>
<path d="M12.0518 19.25H15.9368" stroke="#2E2E2E" stroke-width="1.5" stroke-linecap="round" stroke-linejoin="round"/>
<path d="M11.0835 14.5833H16.9168" stroke="#2E2E2E" stroke-width="1.5" stroke-linecap="round" stroke-linejoin="round"/>
</g>
</svg>
