<svg width="56" height="56" viewBox="0 0 56 56" fill="none" xmlns="http://www.w3.org/2000/svg">
<rect width="56" height="56" rx="28" fill="#E7B850"/>
<path d="M36.7555 13.3643C31.4194 12.3452 25.878 12.3452 20.5419 13.3643C18.1817 13.8738 15.2058 16.7271 14.6927 18.969C13.7691 23.3509 13.7691 27.8346 14.6927 32.2165C15.3084 34.4584 18.2843 37.3117 20.5419 37.8212C20.6445 37.8212 20.7471 37.9231 20.7471 38.025V44.445C20.7471 44.7507 21.1576 44.9545 21.3628 44.6488L24.4414 41.4897C24.4414 41.4897 26.9042 38.9422 27.3147 38.5345C27.3147 38.5345 27.4173 38.4326 27.5199 38.4326C30.5984 38.5345 33.7796 38.2288 36.8581 37.7193C39.2183 37.2098 42.1942 34.3565 42.7073 32.1146C43.6309 27.7327 43.6309 23.249 42.7073 18.8671C42.0916 16.7271 39.1157 13.8738 36.7555 13.3643ZM36.8581 32.5222C36.345 33.5412 35.7293 34.3565 34.7031 34.866C34.3953 34.9679 34.0874 35.0698 33.7796 35.1717C33.3691 35.0698 33.0613 34.9679 32.7534 34.866C29.4696 33.5412 26.3911 31.707 23.9283 29.0575C22.5942 27.5289 21.4654 25.7966 20.5419 23.9623C20.1314 23.0451 19.7209 22.2299 19.4131 21.3128C19.1052 20.4975 19.6183 19.6823 20.1314 19.0709C20.6445 18.4595 21.2602 18.0519 21.9785 17.7461C22.4916 17.4404 23.0047 17.6442 23.4152 18.0519C24.2361 19.0709 25.0571 20.0899 25.6728 21.2109C26.0832 21.9242 25.9806 22.7394 25.2623 23.249C25.0571 23.3509 24.9544 23.4528 24.7492 23.6566C24.6466 23.7585 24.4414 23.8604 24.3387 24.0642C24.1335 24.3699 24.1335 24.6756 24.2361 24.9813C25.0571 27.3251 26.5963 29.1594 28.9565 30.1784C29.367 30.3822 29.6749 30.4841 30.188 30.4841C30.9063 30.3822 31.2141 29.567 31.7272 29.1594C32.2403 28.7518 32.856 28.7518 33.4717 29.0575C33.9848 29.3632 34.4979 29.7708 35.1136 30.1784C35.6267 30.586 36.1398 30.8917 36.6529 31.2994C36.9607 31.5032 37.0634 32.0127 36.8581 32.5222ZM32.5482 24.8794C32.3429 24.8794 32.4455 24.8794 32.5482 24.8794C32.1377 24.8794 32.0351 24.6756 31.9325 24.3699C31.9325 24.1661 31.9325 23.8604 31.8298 23.6566C31.7272 23.249 31.522 22.8413 31.1115 22.5356C30.9063 22.4337 30.701 22.3318 30.4958 22.2299C30.188 22.128 29.9827 22.128 29.6749 22.128C29.367 22.0261 29.2644 21.8223 29.2644 21.5166C29.2644 21.3128 29.5723 21.109 29.7775 21.109C31.4194 21.2109 32.6508 22.128 32.856 24.0642C32.856 24.1661 32.856 24.3699 32.856 24.4718C32.856 24.6756 32.7534 24.8794 32.5482 24.8794ZM31.522 20.3956C31.0089 20.1918 30.4958 19.988 29.8801 19.8861C29.6749 19.8861 29.367 19.7842 29.1618 19.7842C28.8539 19.7842 28.6487 19.5804 28.7513 19.2747C28.7513 18.969 28.9565 18.7652 29.2644 18.8671C30.2906 18.969 31.2141 19.1728 32.1377 19.5804C33.9848 20.4975 35.011 22.0261 35.3189 24.0642C35.3189 24.1661 35.3189 24.268 35.3189 24.3699C35.3189 24.5737 35.3189 24.7775 35.3189 25.0832C35.3189 25.1851 35.3189 25.287 35.3189 25.3889C35.2162 25.7966 34.4979 25.8985 34.3953 25.3889C34.3953 25.287 34.2927 25.0832 34.2927 24.9813C34.2927 24.0642 34.0874 23.147 33.677 22.3318C33.0613 21.4147 32.3429 20.8033 31.522 20.3956ZM37.0634 26.5099C36.7555 26.5099 36.5503 26.2042 36.5503 25.8985C36.5503 25.287 36.4476 24.6756 36.345 24.0642C35.9346 20.8033 33.2665 18.1538 30.0853 17.6442C29.5723 17.5423 29.0592 17.5423 28.6487 17.4404C28.3408 17.4404 27.9304 17.4404 27.8277 17.0328C27.7251 16.7271 28.033 16.4214 28.3408 16.4214C28.4435 16.4214 28.5461 16.4214 28.5461 16.4214C32.7534 16.5233 28.7513 16.4214 28.5461 16.4214C32.856 16.5233 36.4476 19.3766 37.166 23.6566C37.2686 24.3699 37.3712 25.0832 37.3712 25.8985C37.5764 26.2042 37.3712 26.5099 37.0634 26.5099Z" fill="white"/>
</svg>
