<svg width="56" height="56" viewBox="0 0 56 56" fill="none" xmlns="http://www.w3.org/2000/svg">
<rect width="56" height="56" rx="28" fill="#E7B850"/>
<path d="M39.0976 16.8875C36.3317 14.1312 32.6439 12.6 28.7512 12.6C20.6585 12.6 14.1024 19.1333 14.1024 27.1979C14.1024 29.75 14.8195 32.3021 16.0488 34.4458L14 42L21.7854 39.9583C23.9366 41.0813 26.2927 41.6938 28.7512 41.6938C36.8439 41.6938 43.4 35.1604 43.4 27.0958C43.2976 23.3188 41.8634 19.6437 39.0976 16.8875ZM35.8195 32.4042C35.5122 33.2208 34.078 34.0375 33.361 34.1396C32.7463 34.2417 31.9268 34.2417 31.1073 34.0375C30.5951 33.8333 29.878 33.6292 29.0585 33.2208C25.3707 31.6896 23.0146 28.0146 22.8098 27.7083C22.6049 27.5042 21.2732 25.7687 21.2732 23.9312C21.2732 22.0937 22.1951 21.2771 22.5024 20.8687C22.8098 20.4604 23.2195 20.4604 23.5268 20.4604C23.7317 20.4604 24.039 20.4604 24.2439 20.4604C24.4488 20.4604 24.7561 20.3583 25.0634 21.0729C25.3707 21.7875 26.0878 23.625 26.1902 23.7271C26.2927 23.9313 26.2927 24.1354 26.1902 24.3396C26.0878 24.5438 25.9854 24.7479 25.7805 24.9521C25.5756 25.1562 25.3707 25.4625 25.2683 25.5646C25.0634 25.7688 24.8585 25.9729 25.0634 26.2792C25.2683 26.6875 25.9854 27.8104 27.1122 28.8312C28.5463 30.0562 29.6732 30.4646 30.0829 30.6688C30.4927 30.8729 30.6976 30.7708 30.9024 30.5667C31.1073 30.3625 31.8244 29.5458 32.0293 29.1375C32.2341 28.7292 32.5415 28.8313 32.8488 28.9333C33.1561 29.0354 35 29.9542 35.3073 30.1583C35.7171 30.3625 35.9219 30.4646 36.0244 30.5667C36.1268 30.8729 36.1268 31.5875 35.8195 32.4042Z" fill="white"/>
</svg>
