<svg width="131" height="92" viewBox="0 0 131 92" fill="none" xmlns="http://www.w3.org/2000/svg">
<path fill-rule="evenodd" clip-rule="evenodd" d="M38.5947 22.0888H15.1148C14.2128 22.0888 13.3817 22.564 12.9329 23.3382L0.336561 44.9761C-0.112187 45.7502 -0.112187 46.7007 0.336561 47.4748L12.9329 69.1127C13.3817 69.8869 14.2128 70.3621 15.1148 70.3621H38.851L50.7218 90.7507C51.1705 91.5248 52.0016 92 52.9036 92H78.0964C78.9984 92 79.8295 91.5248 80.2782 90.7507L92.149 70.3621H115.885C116.787 70.3621 117.618 69.8869 118.067 69.1127L130.663 47.4748C131.112 46.7007 131.112 45.7502 130.663 44.9761L118.067 23.3382C117.618 22.564 116.787 22.0888 115.885 22.0888H92.4053L80.2779 1.24934C79.8292 0.475205 78.9981 0 78.0961 0H52.9033C52.0014 0 51.1702 0.475205 50.7215 1.24934L38.5947 22.0888ZM76.3838 48.2747H54.6167L43.2146 67.8648L54.3602 87.0041H76.6412L87.7868 67.8648L76.3838 48.2747ZM91.8876 27.0862L80.8736 46.0013L92.1496 65.3659H114.431L125.576 46.2266L114.431 27.0873H91.8876V27.0862ZM39.1124 27.0862H16.5693L5.42379 46.2254L16.5693 65.3647H38.8504L50.1264 46.0001L39.1124 27.085V27.0862ZM77.6328 59.7431L74.4836 54.3309C74.0303 53.5612 73.1992 53.0815 72.3017 53.0815H65.3738C63.9837 53.0815 62.8546 54.2059 62.8546 55.5802C62.8546 56.9589 63.9837 58.0789 65.3738 58.0789H70.8454L73.2691 62.2418C73.9642 63.4365 75.5061 63.8459 76.7106 63.1565C77.9151 62.4671 78.3278 60.9378 77.6328 59.7431ZM87.7853 24.1363L76.6398 43.2756H54.3587L43.2132 24.1363L54.3587 4.99706H76.6398L87.7853 24.1363ZM115.548 37.6694L112.399 32.2572C111.95 31.483 111.119 31.0078 110.217 31.0078H103.289C101.899 31.0078 100.77 32.1278 100.77 33.5065C100.77 34.8852 101.899 36.0052 103.289 36.0052H108.761L111.184 40.1681C111.879 41.3628 113.421 41.7722 114.626 41.0828C115.83 40.3934 116.243 38.8641 115.548 37.6694ZM39.9698 37.6694L36.8206 32.2572C36.3718 31.483 35.5407 31.0078 34.6387 31.0078H27.7108C26.3207 31.0078 25.1916 32.1278 25.1916 33.5065C25.1916 34.8852 26.3207 36.0052 27.7108 36.0052H33.1824L35.6061 40.1681C36.3012 41.3628 37.8431 41.7722 39.0476 41.0828C40.2521 40.3934 40.6649 38.8641 39.9698 37.6694ZM80.2782 17.2651L77.1289 11.8528C76.6802 11.0832 75.8491 10.6035 74.9471 10.6035H68.0192C66.6291 10.6035 65.4999 11.7279 65.4999 13.1022C65.4999 14.4809 66.6291 15.6009 68.0192 15.6009H73.4908L75.9145 19.7638C76.6095 20.9585 78.1514 21.3679 79.3559 20.6785C80.5604 19.9891 80.9732 18.4598 80.2782 17.2651Z" fill="#F6C724"/>
</svg>
