<svg width="91" height="100" viewBox="0 0 91 100" fill="none" xmlns="http://www.w3.org/2000/svg">
<mask id="path-1-outside-1_94_2452" maskUnits="userSpaceOnUse" x="0" y="0" width="91" height="91" fill="black">
<rect fill="white" width="91" height="91"/>
<path d="M43.535 13.2222C42.4832 12.1792 41.1336 11.4875 39.6728 11.244C38.2113 11.0004 36.7108 11.2168 35.3778 11.8621C35.1062 10.4589 34.421 9.16911 33.41 8.15894C32.3414 7.14228 30.9917 6.47144 29.5359 6.23504C28.08 5.99946 26.5865 6.20868 25.2521 6.83561C24.9302 5.12017 23.9926 3.58202 22.6157 2.51031C21.2389 1.43776 19.5179 0.905865 17.7769 1.01369C16.0351 1.1223 14.393 1.86262 13.1592 3.0966L3.10527 13.2223C1.87221 14.4506 1.12867 16.087 1.0152 17.8248C0.9018 19.5618 1.4257 21.2812 2.48866 22.6596C3.55162 24.0388 5.08106 24.9827 6.79004 25.315C6.31645 26.2781 6.06647 27.3363 6.05691 28.4097C6.0601 30.0692 6.63991 31.6768 7.69727 32.9554C8.75466 34.2348 10.2232 35.1068 11.8533 35.4222C11.2072 36.7551 10.9916 38.2557 11.2352 39.7173C11.4787 41.1788 12.1695 42.5276 13.2126 43.5795C13.7189 44.0635 14.2907 44.4732 14.912 44.7966V66.7993C14.912 68.2224 15.4775 69.5873 16.4837 70.5936C17.49 71.6007 18.8557 72.1661 20.2787 72.1661C21.7016 72.1661 23.0676 71.6007 24.0736 70.5936C25.0799 69.5873 25.6453 68.2224 25.6453 66.7993V59.6436C25.6453 58.6549 26.4464 57.8547 27.4342 57.8547C27.9126 57.8563 28.3694 58.0496 28.7041 58.3914C29.0347 58.7244 29.2215 59.174 29.2232 59.6436V75.7439C29.2232 77.167 29.7886 78.5319 30.7949 79.5382C31.8011 80.5453 33.1669 81.1107 34.5898 81.1107C36.0128 81.1107 37.3787 80.5453 38.3848 79.5382C39.391 78.5319 39.9565 77.167 39.9565 75.7439V55.636C41.3109 55.3517 42.5536 54.6801 43.5343 53.7042L44.7865 52.4343L81.5319 89.1245C82.2291 89.8177 83.356 89.8177 84.054 89.1245L89.1165 83.9902C89.8105 83.2922 89.8105 82.1654 89.1165 81.4682L52.4795 44.8495L53.7493 43.5797V43.5789C55.0878 42.238 55.8394 40.4204 55.8394 38.5252C55.8394 36.6309 55.0879 34.8132 53.7493 33.4714C52.7367 32.4652 51.4366 31.7967 50.0286 31.5579C50.7106 30.225 50.9486 28.7092 50.7074 27.2318C50.4654 25.7544 49.7578 24.3927 48.6869 23.3465C47.667 22.3107 46.3462 21.6223 44.9126 21.3787C45.5555 20.0434 45.7687 18.542 45.5219 17.0806C45.2752 15.6199 44.5811 14.2711 43.5349 13.2216L43.535 13.2222ZM5.62836 20.8068C4.96231 20.1367 4.58856 19.2295 4.58856 18.2847C4.58856 17.3391 4.96231 16.4327 5.62836 15.7618L15.754 5.63695C16.4249 4.9653 17.3353 4.58756 18.2849 4.58756C19.2345 4.58756 20.1457 4.96532 20.8166 5.63695C21.4882 6.30778 21.866 7.21903 21.866 8.16863C21.866 9.11818 21.4882 10.0286 20.8166 10.6995L10.6917 20.807C10.0201 21.4786 9.10964 21.8564 8.16004 21.8564C7.21044 21.8564 6.30003 21.4786 5.62836 20.807V20.8068ZM10.6909 30.9316L10.6917 30.9324C10.0192 30.2608 9.64231 29.3504 9.64231 28.4008C9.64231 27.4512 10.0193 26.5408 10.6917 25.8691L25.8791 10.6457C26.5531 9.9517 27.4787 9.56036 28.4468 9.56036C29.4139 9.56036 30.3395 9.9517 31.0136 10.6457C31.6796 11.3157 32.0542 12.223 32.0542 13.1678C32.0542 14.1133 31.6796 15.0198 31.0136 15.6906L15.8254 30.8789V30.8781C15.1593 31.5793 14.2369 31.981 13.2698 31.9913C12.3026 32.0009 11.3723 31.6192 10.6919 30.9324L10.6909 30.9316ZM15.7542 41.0573C15.0826 40.3865 14.7049 39.4752 14.7049 38.5256C14.7049 37.5761 15.0826 36.6656 15.7542 35.9948L35.9866 15.7624V15.7616C36.9018 14.9303 38.1811 14.6292 39.3704 14.967C40.5596 15.304 41.4907 16.232 41.8326 17.4204C42.1744 18.6087 41.8781 19.8889 41.0491 20.8064L20.8168 41.0572C20.1324 41.7041 19.2267 42.0643 18.2851 42.0643C17.3443 42.0643 16.4387 41.7041 15.7542 41.0572V41.0573ZM36.381 75.7439C36.381 76.2183 36.1925 76.6727 35.8571 77.0089C35.5217 77.3444 35.0664 77.5328 34.5921 77.5328C33.6042 77.5328 32.8031 76.7318 32.8031 75.7439V59.6437C32.8031 58.2197 32.2377 56.8548 31.2315 55.8487C30.2252 54.8424 28.8595 54.277 27.4365 54.277C26.0135 54.277 24.6476 54.8424 23.6415 55.8487C22.6353 56.855 22.0698 58.2199 22.0698 59.6437V66.7993C22.0698 67.2737 21.8814 67.7281 21.5459 68.0644C21.2105 68.3998 20.7553 68.5882 20.2809 68.5882C19.293 68.5882 18.492 67.7872 18.492 66.7993V45.6533C19.4935 45.6341 20.4782 45.3897 21.3719 44.9377C21.6881 46.5701 22.5626 48.0413 23.8461 49.0993C25.1287 50.1567 26.7402 50.7349 28.403 50.7333C29.4772 50.7285 30.5354 50.4777 31.4977 50.0001C31.7485 51.2532 32.3355 52.4151 33.1956 53.36C34.0557 54.3056 35.1571 54.9996 36.3813 55.367L36.381 75.7439ZM85.3258 82.7927L82.8932 85.3323L47.3827 50.0017L49.9048 47.4612L85.3258 82.7927ZM51.1748 35.9946C51.8465 36.6654 52.2242 37.5759 52.2242 38.5254C52.2242 39.475 51.8465 40.3862 51.1748 41.0571L41.05 51.1646H41.0492C40.3783 51.8363 39.4679 52.214 38.5183 52.214C37.5687 52.214 36.6583 51.8362 35.9866 51.1646C35.3206 50.4946 34.946 49.5873 34.946 48.6425C34.946 47.697 35.3206 46.7905 35.9866 46.1196L46.1115 35.9948H46.1123C46.7831 35.3231 47.6936 34.9454 48.6431 34.9454C49.5927 34.9454 50.5032 35.3232 51.1748 35.9948V35.9946ZM46.1123 25.8697V25.8689C46.7839 26.5406 47.1617 27.451 47.1617 28.4006C47.1617 29.3502 46.7839 30.2606 46.1123 30.9323L33.4645 43.58L31.0136 46.1197C30.3436 46.7865 29.4363 47.1603 28.4916 47.1603C27.546 47.1603 26.6395 46.7865 25.9687 46.1197C25.297 45.4488 24.9193 44.5384 24.9193 43.5888C24.9193 42.6393 25.297 41.728 25.9687 41.0571L41.1385 25.8689C41.8181 25.2484 42.7054 24.9042 43.6254 24.9042C44.5454 24.9042 45.4327 25.2484 46.1123 25.8689V25.8697Z"/>
</mask>
<path d="M43.535 13.2222C42.4832 12.1792 41.1336 11.4875 39.6728 11.244C38.2113 11.0004 36.7108 11.2168 35.3778 11.8621C35.1062 10.4589 34.421 9.16911 33.41 8.15894C32.3414 7.14228 30.9917 6.47144 29.5359 6.23504C28.08 5.99946 26.5865 6.20868 25.2521 6.83561C24.9302 5.12017 23.9926 3.58202 22.6157 2.51031C21.2389 1.43776 19.5179 0.905865 17.7769 1.01369C16.0351 1.1223 14.393 1.86262 13.1592 3.0966L3.10527 13.2223C1.87221 14.4506 1.12867 16.087 1.0152 17.8248C0.9018 19.5618 1.4257 21.2812 2.48866 22.6596C3.55162 24.0388 5.08106 24.9827 6.79004 25.315C6.31645 26.2781 6.06647 27.3363 6.05691 28.4097C6.0601 30.0692 6.63991 31.6768 7.69727 32.9554C8.75466 34.2348 10.2232 35.1068 11.8533 35.4222C11.2072 36.7551 10.9916 38.2557 11.2352 39.7173C11.4787 41.1788 12.1695 42.5276 13.2126 43.5795C13.7189 44.0635 14.2907 44.4732 14.912 44.7966V66.7993C14.912 68.2224 15.4775 69.5873 16.4837 70.5936C17.49 71.6007 18.8557 72.1661 20.2787 72.1661C21.7016 72.1661 23.0676 71.6007 24.0736 70.5936C25.0799 69.5873 25.6453 68.2224 25.6453 66.7993V59.6436C25.6453 58.6549 26.4464 57.8547 27.4342 57.8547C27.9126 57.8563 28.3694 58.0496 28.7041 58.3914C29.0347 58.7244 29.2215 59.174 29.2232 59.6436V75.7439C29.2232 77.167 29.7886 78.5319 30.7949 79.5382C31.8011 80.5453 33.1669 81.1107 34.5898 81.1107C36.0128 81.1107 37.3787 80.5453 38.3848 79.5382C39.391 78.5319 39.9565 77.167 39.9565 75.7439V55.636C41.3109 55.3517 42.5536 54.6801 43.5343 53.7042L44.7865 52.4343L81.5319 89.1245C82.2291 89.8177 83.356 89.8177 84.054 89.1245L89.1165 83.9902C89.8105 83.2922 89.8105 82.1654 89.1165 81.4682L52.4795 44.8495L53.7493 43.5797V43.5789C55.0878 42.238 55.8394 40.4204 55.8394 38.5252C55.8394 36.6309 55.0879 34.8132 53.7493 33.4714C52.7367 32.4652 51.4366 31.7967 50.0286 31.5579C50.7106 30.225 50.9486 28.7092 50.7074 27.2318C50.4654 25.7544 49.7578 24.3927 48.6869 23.3465C47.667 22.3107 46.3462 21.6223 44.9126 21.3787C45.5555 20.0434 45.7687 18.542 45.5219 17.0806C45.2752 15.6199 44.5811 14.2711 43.5349 13.2216L43.535 13.2222ZM5.62836 20.8068C4.96231 20.1367 4.58856 19.2295 4.58856 18.2847C4.58856 17.3391 4.96231 16.4327 5.62836 15.7618L15.754 5.63695C16.4249 4.9653 17.3353 4.58756 18.2849 4.58756C19.2345 4.58756 20.1457 4.96532 20.8166 5.63695C21.4882 6.30778 21.866 7.21903 21.866 8.16863C21.866 9.11818 21.4882 10.0286 20.8166 10.6995L10.6917 20.807C10.0201 21.4786 9.10964 21.8564 8.16004 21.8564C7.21044 21.8564 6.30003 21.4786 5.62836 20.807V20.8068ZM10.6909 30.9316L10.6917 30.9324C10.0192 30.2608 9.64231 29.3504 9.64231 28.4008C9.64231 27.4512 10.0193 26.5408 10.6917 25.8691L25.8791 10.6457C26.5531 9.9517 27.4787 9.56036 28.4468 9.56036C29.4139 9.56036 30.3395 9.9517 31.0136 10.6457C31.6796 11.3157 32.0542 12.223 32.0542 13.1678C32.0542 14.1133 31.6796 15.0198 31.0136 15.6906L15.8254 30.8789V30.8781C15.1593 31.5793 14.2369 31.981 13.2698 31.9913C12.3026 32.0009 11.3723 31.6192 10.6919 30.9324L10.6909 30.9316ZM15.7542 41.0573C15.0826 40.3865 14.7049 39.4752 14.7049 38.5256C14.7049 37.5761 15.0826 36.6656 15.7542 35.9948L35.9866 15.7624V15.7616C36.9018 14.9303 38.1811 14.6292 39.3704 14.967C40.5596 15.304 41.4907 16.232 41.8326 17.4204C42.1744 18.6087 41.8781 19.8889 41.0491 20.8064L20.8168 41.0572C20.1324 41.7041 19.2267 42.0643 18.2851 42.0643C17.3443 42.0643 16.4387 41.7041 15.7542 41.0572V41.0573ZM36.381 75.7439C36.381 76.2183 36.1925 76.6727 35.8571 77.0089C35.5217 77.3444 35.0664 77.5328 34.5921 77.5328C33.6042 77.5328 32.8031 76.7318 32.8031 75.7439V59.6437C32.8031 58.2197 32.2377 56.8548 31.2315 55.8487C30.2252 54.8424 28.8595 54.277 27.4365 54.277C26.0135 54.277 24.6476 54.8424 23.6415 55.8487C22.6353 56.855 22.0698 58.2199 22.0698 59.6437V66.7993C22.0698 67.2737 21.8814 67.7281 21.5459 68.0644C21.2105 68.3998 20.7553 68.5882 20.2809 68.5882C19.293 68.5882 18.492 67.7872 18.492 66.7993V45.6533C19.4935 45.6341 20.4782 45.3897 21.3719 44.9377C21.6881 46.5701 22.5626 48.0413 23.8461 49.0993C25.1287 50.1567 26.7402 50.7349 28.403 50.7333C29.4772 50.7285 30.5354 50.4777 31.4977 50.0001C31.7485 51.2532 32.3355 52.4151 33.1956 53.36C34.0557 54.3056 35.1571 54.9996 36.3813 55.367L36.381 75.7439ZM85.3258 82.7927L82.8932 85.3323L47.3827 50.0017L49.9048 47.4612L85.3258 82.7927ZM51.1748 35.9946C51.8465 36.6654 52.2242 37.5759 52.2242 38.5254C52.2242 39.475 51.8465 40.3862 51.1748 41.0571L41.05 51.1646H41.0492C40.3783 51.8363 39.4679 52.214 38.5183 52.214C37.5687 52.214 36.6583 51.8362 35.9866 51.1646C35.3206 50.4946 34.946 49.5873 34.946 48.6425C34.946 47.697 35.3206 46.7905 35.9866 46.1196L46.1115 35.9948H46.1123C46.7831 35.3231 47.6936 34.9454 48.6431 34.9454C49.5927 34.9454 50.5032 35.3232 51.1748 35.9948V35.9946ZM46.1123 25.8697V25.8689C46.7839 26.5406 47.1617 27.451 47.1617 28.4006C47.1617 29.3502 46.7839 30.2606 46.1123 30.9323L33.4645 43.58L31.0136 46.1197C30.3436 46.7865 29.4363 47.1603 28.4916 47.1603C27.546 47.1603 26.6395 46.7865 25.9687 46.1197C25.297 45.4488 24.9193 44.5384 24.9193 43.5888C24.9193 42.6393 25.297 41.728 25.9687 41.0571L41.1385 25.8689C41.8181 25.2484 42.7054 24.9042 43.6254 24.9042C44.5454 24.9042 45.4327 25.2484 46.1123 25.8689V25.8697Z" fill="#F6C724"/>
<path d="M43.535 13.2222C42.4832 12.1792 41.1336 11.4875 39.6728 11.244C38.2113 11.0004 36.7108 11.2168 35.3778 11.8621C35.1062 10.4589 34.421 9.16911 33.41 8.15894C32.3414 7.14228 30.9917 6.47144 29.5359 6.23504C28.08 5.99946 26.5865 6.20868 25.2521 6.83561C24.9302 5.12017 23.9926 3.58202 22.6157 2.51031C21.2389 1.43776 19.5179 0.905865 17.7769 1.01369C16.0351 1.1223 14.393 1.86262 13.1592 3.0966L3.10527 13.2223C1.87221 14.4506 1.12867 16.087 1.0152 17.8248C0.9018 19.5618 1.4257 21.2812 2.48866 22.6596C3.55162 24.0388 5.08106 24.9827 6.79004 25.315C6.31645 26.2781 6.06647 27.3363 6.05691 28.4097C6.0601 30.0692 6.63991 31.6768 7.69727 32.9554C8.75466 34.2348 10.2232 35.1068 11.8533 35.4222C11.2072 36.7551 10.9916 38.2557 11.2352 39.7173C11.4787 41.1788 12.1695 42.5276 13.2126 43.5795C13.7189 44.0635 14.2907 44.4732 14.912 44.7966V66.7993C14.912 68.2224 15.4775 69.5873 16.4837 70.5936C17.49 71.6007 18.8557 72.1661 20.2787 72.1661C21.7016 72.1661 23.0676 71.6007 24.0736 70.5936C25.0799 69.5873 25.6453 68.2224 25.6453 66.7993V59.6436C25.6453 58.6549 26.4464 57.8547 27.4342 57.8547C27.9126 57.8563 28.3694 58.0496 28.7041 58.3914C29.0347 58.7244 29.2215 59.174 29.2232 59.6436V75.7439C29.2232 77.167 29.7886 78.5319 30.7949 79.5382C31.8011 80.5453 33.1669 81.1107 34.5898 81.1107C36.0128 81.1107 37.3787 80.5453 38.3848 79.5382C39.391 78.5319 39.9565 77.167 39.9565 75.7439V55.636C41.3109 55.3517 42.5536 54.6801 43.5343 53.7042L44.7865 52.4343L81.5319 89.1245C82.2291 89.8177 83.356 89.8177 84.054 89.1245L89.1165 83.9902C89.8105 83.2922 89.8105 82.1654 89.1165 81.4682L52.4795 44.8495L53.7493 43.5797V43.5789C55.0878 42.238 55.8394 40.4204 55.8394 38.5252C55.8394 36.6309 55.0879 34.8132 53.7493 33.4714C52.7367 32.4652 51.4366 31.7967 50.0286 31.5579C50.7106 30.225 50.9486 28.7092 50.7074 27.2318C50.4654 25.7544 49.7578 24.3927 48.6869 23.3465C47.667 22.3107 46.3462 21.6223 44.9126 21.3787C45.5555 20.0434 45.7687 18.542 45.5219 17.0806C45.2752 15.6199 44.5811 14.2711 43.5349 13.2216L43.535 13.2222ZM5.62836 20.8068C4.96231 20.1367 4.58856 19.2295 4.58856 18.2847C4.58856 17.3391 4.96231 16.4327 5.62836 15.7618L15.754 5.63695C16.4249 4.9653 17.3353 4.58756 18.2849 4.58756C19.2345 4.58756 20.1457 4.96532 20.8166 5.63695C21.4882 6.30778 21.866 7.21903 21.866 8.16863C21.866 9.11818 21.4882 10.0286 20.8166 10.6995L10.6917 20.807C10.0201 21.4786 9.10964 21.8564 8.16004 21.8564C7.21044 21.8564 6.30003 21.4786 5.62836 20.807V20.8068ZM10.6909 30.9316L10.6917 30.9324C10.0192 30.2608 9.64231 29.3504 9.64231 28.4008C9.64231 27.4512 10.0193 26.5408 10.6917 25.8691L25.8791 10.6457C26.5531 9.9517 27.4787 9.56036 28.4468 9.56036C29.4139 9.56036 30.3395 9.9517 31.0136 10.6457C31.6796 11.3157 32.0542 12.223 32.0542 13.1678C32.0542 14.1133 31.6796 15.0198 31.0136 15.6906L15.8254 30.8789V30.8781C15.1593 31.5793 14.2369 31.981 13.2698 31.9913C12.3026 32.0009 11.3723 31.6192 10.6919 30.9324L10.6909 30.9316ZM15.7542 41.0573C15.0826 40.3865 14.7049 39.4752 14.7049 38.5256C14.7049 37.5761 15.0826 36.6656 15.7542 35.9948L35.9866 15.7624V15.7616C36.9018 14.9303 38.1811 14.6292 39.3704 14.967C40.5596 15.304 41.4907 16.232 41.8326 17.4204C42.1744 18.6087 41.8781 19.8889 41.0491 20.8064L20.8168 41.0572C20.1324 41.7041 19.2267 42.0643 18.2851 42.0643C17.3443 42.0643 16.4387 41.7041 15.7542 41.0572V41.0573ZM36.381 75.7439C36.381 76.2183 36.1925 76.6727 35.8571 77.0089C35.5217 77.3444 35.0664 77.5328 34.5921 77.5328C33.6042 77.5328 32.8031 76.7318 32.8031 75.7439V59.6437C32.8031 58.2197 32.2377 56.8548 31.2315 55.8487C30.2252 54.8424 28.8595 54.277 27.4365 54.277C26.0135 54.277 24.6476 54.8424 23.6415 55.8487C22.6353 56.855 22.0698 58.2199 22.0698 59.6437V66.7993C22.0698 67.2737 21.8814 67.7281 21.5459 68.0644C21.2105 68.3998 20.7553 68.5882 20.2809 68.5882C19.293 68.5882 18.492 67.7872 18.492 66.7993V45.6533C19.4935 45.6341 20.4782 45.3897 21.3719 44.9377C21.6881 46.5701 22.5626 48.0413 23.8461 49.0993C25.1287 50.1567 26.7402 50.7349 28.403 50.7333C29.4772 50.7285 30.5354 50.4777 31.4977 50.0001C31.7485 51.2532 32.3355 52.4151 33.1956 53.36C34.0557 54.3056 35.1571 54.9996 36.3813 55.367L36.381 75.7439ZM85.3258 82.7927L82.8932 85.3323L47.3827 50.0017L49.9048 47.4612L85.3258 82.7927ZM51.1748 35.9946C51.8465 36.6654 52.2242 37.5759 52.2242 38.5254C52.2242 39.475 51.8465 40.3862 51.1748 41.0571L41.05 51.1646H41.0492C40.3783 51.8363 39.4679 52.214 38.5183 52.214C37.5687 52.214 36.6583 51.8362 35.9866 51.1646C35.3206 50.4946 34.946 49.5873 34.946 48.6425C34.946 47.697 35.3206 46.7905 35.9866 46.1196L46.1115 35.9948H46.1123C46.7831 35.3231 47.6936 34.9454 48.6431 34.9454C49.5927 34.9454 50.5032 35.3232 51.1748 35.9948V35.9946ZM46.1123 25.8697V25.8689C46.7839 26.5406 47.1617 27.451 47.1617 28.4006C47.1617 29.3502 46.7839 30.2606 46.1123 30.9323L33.4645 43.58L31.0136 46.1197C30.3436 46.7865 29.4363 47.1603 28.4916 47.1603C27.546 47.1603 26.6395 46.7865 25.9687 46.1197C25.297 45.4488 24.9193 44.5384 24.9193 43.5888C24.9193 42.6393 25.297 41.728 25.9687 41.0571L41.1385 25.8689C41.8181 25.2484 42.7054 24.9042 43.6254 24.9042C44.5454 24.9042 45.4327 25.2484 46.1123 25.8689V25.8697Z" stroke="#F6C724" stroke-width="1.2" mask="url(#path-1-outside-1_94_2452)"/>
<path d="M25.9327 84.3889C25.8861 83.8359 25.7186 83.2169 25.4839 82.5807C25.2041 81.8223 24.8205 81.018 24.403 80.2382C23.568 78.6786 22.5858 77.1965 21.9925 76.3423L21.9921 76.3417C21.6014 75.7822 20.9618 75.4484 20.2791 75.4484C19.5964 75.4484 18.9567 75.7822 18.566 76.3417L18.5659 76.3416L18.5616 76.3482C18.549 76.3673 18.5362 76.3867 18.5233 76.4063C17.9303 77.3048 16.9723 78.7566 16.1555 80.271C15.7381 81.0449 15.3545 81.8408 15.0745 82.5924C14.7962 83.3397 14.6124 84.0642 14.6124 84.6889C14.6124 86.7127 15.6925 88.5839 17.4457 89.5958C19.1988 90.6085 21.3593 90.6085 23.1125 89.5958C24.8656 88.5839 25.9459 86.7128 25.9459 84.6889V84.3889H25.9327ZM18.7906 84.7286C19.1253 83.5499 19.6269 82.4255 20.279 81.3904C20.9311 82.4257 21.4328 83.55 21.7674 84.7286C21.7464 85.5324 21.088 86.1778 20.279 86.1778C19.4701 86.1778 18.8117 85.5324 18.7906 84.7286Z" fill="#F6C724" stroke="#F6C724" stroke-width="0.6"/>
<path d="M40.2441 93.3335C40.1975 92.7805 40.0301 92.1615 39.7954 91.5253C39.5155 90.7669 39.132 89.9626 38.7145 89.1829C37.8794 87.6232 36.8973 86.1412 36.304 85.2869L36.3036 85.2863C35.9129 84.7268 35.2732 84.393 34.5905 84.393C33.9078 84.393 33.2682 84.7268 32.8775 85.2863L32.8774 85.2863L32.873 85.2929C32.8605 85.3119 32.8477 85.3313 32.8347 85.3509C32.2418 86.2494 31.2837 87.7012 30.467 89.2156C30.0496 89.9895 29.6659 90.7855 29.386 91.537C29.1077 92.2844 28.9238 93.0088 28.9238 93.6335C28.9238 95.6574 30.004 97.5285 31.7571 98.5404C33.5103 99.5532 35.6708 99.5532 37.4239 98.5405C39.1771 97.5285 40.2573 95.6574 40.2573 93.6335V93.3335H40.2441ZM33.1021 93.6732C33.4367 92.4946 33.9384 91.3702 34.5905 90.335C35.2426 91.3703 35.7443 92.4946 36.0789 93.6732C36.0579 94.4771 35.3994 95.1225 34.5905 95.1225C33.7815 95.1225 33.1231 94.4771 33.1021 93.6732Z" fill="#F6C724" stroke="#F6C724" stroke-width="0.6"/>
</svg>
