<svg width="104" height="92" viewBox="0 0 104 92" fill="none" xmlns="http://www.w3.org/2000/svg">
<mask id="path-1-inside-1_94_2449" fill="white">
<path d="M33.375 0.000420659C32.554 -0.013125 31.762 0.30096 31.1766 0.871569C30.5912 1.44218 30.2617 2.22191 30.2617 3.03634C30.2617 3.85077 30.5912 4.63051 31.1766 5.20196C31.7621 5.77257 32.5541 6.08581 33.375 6.07227H35.9466C38.3311 6.07227 40.155 7.88147 40.155 10.2469V13.0391C34.8448 16.7515 31.3695 22.8808 31.3695 29.8019V30.5901H3.06051L3.05966 30.5893C1.36981 30.5893 0 31.9489 0 33.6252C0 46.9956 11.0241 57.8904 24.5314 57.8904C25.8671 57.8904 27.1806 57.7169 28.4677 57.3892C28.4677 57.8599 28.3644 58.3205 28.3644 58.798C28.3644 66.265 34.1953 72.949 39.5335 78.3172C43.3024 82.1082 47.0568 85.1553 48.9395 86.6191V88.9632C48.9387 89.7683 49.2613 90.5405 49.8356 91.1102C50.4092 91.68 51.1884 92 52 92C52.8116 92 53.5908 91.68 54.1644 91.1102C54.7387 90.5405 55.0613 89.7683 55.0605 88.9632V86.6191C56.9432 85.1553 60.6976 82.1085 64.4665 78.3172C69.8049 72.9488 75.6356 66.2641 75.6356 58.798C75.6356 58.3281 75.6356 57.8565 75.5323 57.3892C76.8185 57.7067 78.1319 57.8904 79.4686 57.8904C92.9744 57.8904 104 46.9971 104 33.6252C104 31.9489 102.63 30.5893 100.94 30.5893H72.6313V29.8011C72.6313 22.88 69.1552 16.7506 63.8458 13.0382V10.2461C63.8458 7.88069 65.6697 6.07142 68.0543 6.07142H70.6258L70.625 6.07227C71.446 6.08581 72.238 5.77257 72.8234 5.20196C73.4088 4.63051 73.7383 3.85077 73.7383 3.03634C73.7383 2.22191 73.4088 1.44218 72.8234 0.871569C72.2379 0.30096 71.4459 -0.013125 70.625 0.000420659H68.0534C62.4266 0.000420659 57.7958 4.55177 57.725 10.1166C55.8986 9.59505 53.969 9.30804 51.9727 9.30804C49.9782 9.30804 48.0468 9.59419 46.2214 10.1166C46.1181 4.55177 41.5189 0.000420659 35.8929 0.000420659H33.375ZM52.0264 15.3807C60.1333 15.3807 66.5632 21.7591 66.5632 29.8009V30.5891H37.4895V29.8009C37.4895 21.7591 43.9204 15.3807 52.0264 15.3807ZM6.37405 36.6585H45.6357C44.2181 38.2958 42.49 40.1906 40.5671 42.0818C35.3746 47.1927 28.6162 51.8151 24.5281 51.8151C15.3671 51.8151 7.82522 45.2811 6.37252 36.6583L6.37405 36.6585ZM58.4149 36.6585H97.6765C96.224 45.282 88.6811 51.8154 79.5209 51.8154C75.4337 51.8154 68.6742 47.1929 63.482 42.082C61.5591 40.1898 59.8309 38.295 58.4133 36.6587L58.4149 36.6585ZM52.0251 38.5473C53.2566 40.0424 54.8901 41.9439 56.7976 43.9647H47.2534C49.1609 41.9438 50.7943 40.0414 52.0251 38.5473ZM40.9805 50.0366H63.0714C64.693 51.4547 66.4007 52.8084 68.1853 53.98C68.5156 54.6455 68.7835 55.2914 68.9901 55.9086H35.0616C35.2682 55.2948 35.5362 54.6446 35.8664 53.98C37.651 52.8083 39.3587 51.4547 40.9803 50.0366H40.9805ZM35.2417 61.9796H68.8097C68.0979 63.7794 66.8988 65.807 65.4249 67.8508H38.6278C37.1539 65.8079 35.9582 63.7795 35.2431 61.9796H35.2417ZM43.7873 73.9225H60.2641C60.2641 73.9225 60.1609 74.0258 60.1301 74.0554C57.0252 77.1768 53.9127 79.7752 52.0206 81.2778C50.1302 79.775 47.0169 77.1768 43.9112 74.0554C43.9112 74.0554 43.8079 73.9521 43.7874 73.9225H43.7873Z"/>
</mask>
<path d="M33.375 0.000420659C32.554 -0.013125 31.762 0.30096 31.1766 0.871569C30.5912 1.44218 30.2617 2.22191 30.2617 3.03634C30.2617 3.85077 30.5912 4.63051 31.1766 5.20196C31.7621 5.77257 32.5541 6.08581 33.375 6.07227H35.9466C38.3311 6.07227 40.155 7.88147 40.155 10.2469V13.0391C34.8448 16.7515 31.3695 22.8808 31.3695 29.8019V30.5901H3.06051L3.05966 30.5893C1.36981 30.5893 0 31.9489 0 33.6252C0 46.9956 11.0241 57.8904 24.5314 57.8904C25.8671 57.8904 27.1806 57.7169 28.4677 57.3892C28.4677 57.8599 28.3644 58.3205 28.3644 58.798C28.3644 66.265 34.1953 72.949 39.5335 78.3172C43.3024 82.1082 47.0568 85.1553 48.9395 86.6191V88.9632C48.9387 89.7683 49.2613 90.5405 49.8356 91.1102C50.4092 91.68 51.1884 92 52 92C52.8116 92 53.5908 91.68 54.1644 91.1102C54.7387 90.5405 55.0613 89.7683 55.0605 88.9632V86.6191C56.9432 85.1553 60.6976 82.1085 64.4665 78.3172C69.8049 72.9488 75.6356 66.2641 75.6356 58.798C75.6356 58.3281 75.6356 57.8565 75.5323 57.3892C76.8185 57.7067 78.1319 57.8904 79.4686 57.8904C92.9744 57.8904 104 46.9971 104 33.6252C104 31.9489 102.63 30.5893 100.94 30.5893H72.6313V29.8011C72.6313 22.88 69.1552 16.7506 63.8458 13.0382V10.2461C63.8458 7.88069 65.6697 6.07142 68.0543 6.07142H70.6258L70.625 6.07227C71.446 6.08581 72.238 5.77257 72.8234 5.20196C73.4088 4.63051 73.7383 3.85077 73.7383 3.03634C73.7383 2.22191 73.4088 1.44218 72.8234 0.871569C72.2379 0.30096 71.4459 -0.013125 70.625 0.000420659H68.0534C62.4266 0.000420659 57.7958 4.55177 57.725 10.1166C55.8986 9.59505 53.969 9.30804 51.9727 9.30804C49.9782 9.30804 48.0468 9.59419 46.2214 10.1166C46.1181 4.55177 41.5189 0.000420659 35.8929 0.000420659H33.375ZM52.0264 15.3807C60.1333 15.3807 66.5632 21.7591 66.5632 29.8009V30.5891H37.4895V29.8009C37.4895 21.7591 43.9204 15.3807 52.0264 15.3807ZM6.37405 36.6585H45.6357C44.2181 38.2958 42.49 40.1906 40.5671 42.0818C35.3746 47.1927 28.6162 51.8151 24.5281 51.8151C15.3671 51.8151 7.82522 45.2811 6.37252 36.6583L6.37405 36.6585ZM58.4149 36.6585H97.6765C96.224 45.282 88.6811 51.8154 79.5209 51.8154C75.4337 51.8154 68.6742 47.1929 63.482 42.082C61.5591 40.1898 59.8309 38.295 58.4133 36.6587L58.4149 36.6585ZM52.0251 38.5473C53.2566 40.0424 54.8901 41.9439 56.7976 43.9647H47.2534C49.1609 41.9438 50.7943 40.0414 52.0251 38.5473ZM40.9805 50.0366H63.0714C64.693 51.4547 66.4007 52.8084 68.1853 53.98C68.5156 54.6455 68.7835 55.2914 68.9901 55.9086H35.0616C35.2682 55.2948 35.5362 54.6446 35.8664 53.98C37.651 52.8083 39.3587 51.4547 40.9803 50.0366H40.9805ZM35.2417 61.9796H68.8097C68.0979 63.7794 66.8988 65.807 65.4249 67.8508H38.6278C37.1539 65.8079 35.9582 63.7795 35.2431 61.9796H35.2417ZM43.7873 73.9225H60.2641C60.2641 73.9225 60.1609 74.0258 60.1301 74.0554C57.0252 77.1768 53.9127 79.7752 52.0206 81.2778C50.1302 79.775 47.0169 77.1768 43.9112 74.0554C43.9112 74.0554 43.8079 73.9521 43.7874 73.9225H43.7873Z" fill="#F6C724"/>
<path d="M33.375 0.000420659L33.3618 0.800421H33.375V0.000420659ZM31.1766 0.871569L31.735 1.44448L31.735 1.44443L31.1766 0.871569ZM31.1766 5.20196L30.6178 5.77446L30.6183 5.77487L31.1766 5.20196ZM33.375 6.07227V5.27216L33.3618 5.27238L33.375 6.07227ZM40.155 13.0391L40.6134 13.6947L40.955 13.4559V13.0391H40.155ZM31.3695 30.5901V31.3901H32.1695V30.5901H31.3695ZM3.06051 30.5901L2.496 31.157L2.73011 31.3901H3.06051V30.5901ZM3.05966 30.5893L3.62416 30.0224L3.39005 29.7893H3.05966V30.5893ZM28.4677 57.3892H29.2677V56.3601L28.2703 56.6139L28.4677 57.3892ZM39.5335 78.3172L40.1009 77.7532L40.1008 77.7531L39.5335 78.3172ZM48.9395 86.6191H49.7395V86.2277L49.4306 85.9875L48.9395 86.6191ZM48.9395 88.9632L49.7395 88.9641V88.9632H48.9395ZM49.8356 91.1102L50.3995 90.5427L50.399 90.5423L49.8356 91.1102ZM54.1644 91.1102L53.6009 90.5423L53.6005 90.5427L54.1644 91.1102ZM55.0605 88.9632H54.2605V88.9641L55.0605 88.9632ZM55.0605 86.6191L54.5695 85.9875L54.2605 86.2277V86.6191H55.0605ZM64.4665 78.3172L63.8992 77.7531L63.8991 77.7532L64.4665 78.3172ZM75.5323 57.3892L75.7241 56.6125L74.4732 56.3038L74.7512 57.5618L75.5323 57.3892ZM72.6313 30.5893H71.8313V31.3893H72.6313V30.5893ZM63.8458 13.0382H63.0458V13.455L63.3874 13.6939L63.8458 13.0382ZM70.6258 6.07142L71.1892 6.63938L72.5683 5.27142H70.6258V6.07142ZM70.625 6.07227L70.0616 5.50431L68.7142 6.84085L70.6118 6.87216L70.625 6.07227ZM72.8234 5.20196L73.3818 5.77482L73.3822 5.77446L72.8234 5.20196ZM70.625 0.000420659V0.80053L70.6382 0.800312L70.625 0.000420659ZM57.725 10.1166L57.5053 10.8858L58.5116 11.1731L58.5249 10.1267L57.725 10.1166ZM46.2214 10.1166L45.4215 10.1314L45.4408 11.172L46.4414 10.8857L46.2214 10.1166ZM66.5632 30.5891V31.3891H67.3632V30.5891H66.5632ZM37.4895 30.5891H36.6895V31.3891H37.4895V30.5891ZM6.37405 36.6585L6.26108 37.4505L6.31728 37.4585H6.37405V36.6585ZM45.6357 36.6585L46.2405 37.1821L47.3865 35.8585H45.6357V36.6585ZM40.5671 42.0818L40.0061 41.5114L40.0059 41.5116L40.5671 42.0818ZM6.37252 36.6583L6.48548 35.8663L5.40177 35.7117L5.58363 36.7912L6.37252 36.6583ZM58.4149 36.6585V35.8585H58.3591L58.3038 35.8662L58.4149 36.6585ZM97.6765 36.6585L98.4654 36.7914L98.6226 35.8585H97.6765V36.6585ZM63.482 42.082L64.0432 41.5118L64.0431 41.5118L63.482 42.082ZM58.4133 36.6587L58.3023 35.8665L56.8455 36.0707L57.8087 37.1825L58.4133 36.6587ZM52.0251 38.5473L52.6426 38.0386L52.0251 37.289L51.4076 38.0386L52.0251 38.5473ZM56.7976 43.9647V44.7647H58.653L57.3794 43.4155L56.7976 43.9647ZM47.2534 43.9647L46.6716 43.4155L45.3982 44.7647H47.2534V43.9647ZM63.0714 50.0366L63.5981 49.4344L63.3719 49.2366H63.0714V50.0366ZM68.1853 53.98L68.9019 53.6244L68.8055 53.4302L68.6243 53.3113L68.1853 53.98ZM68.9901 55.9086V56.7086H70.1014L69.7487 55.6547L68.9901 55.9086ZM35.0616 55.9086L34.3034 55.6534L33.9484 56.7086H35.0616V55.9086ZM35.8664 53.98L35.4274 53.3113L35.2464 53.4301L35.15 53.624L35.8664 53.98ZM40.9803 50.0366V49.2366H40.6798L40.4537 49.4344L40.9803 50.0366ZM68.8097 61.9796L69.5536 62.2738L69.9864 61.1796H68.8097V61.9796ZM65.4249 67.8508V68.6508H65.8344L66.0738 68.3187L65.4249 67.8508ZM38.6278 67.8508L37.9791 68.3189L38.2185 68.6508H38.6278V67.8508ZM35.2431 61.9796L35.9865 61.6842L35.786 61.1796H35.2431V61.9796ZM60.2641 73.9225L60.8298 74.4882L62.1953 73.1225H60.2641V73.9225ZM60.1301 74.0554L59.5748 73.4796L59.5688 73.4854L59.5629 73.4912L60.1301 74.0554ZM52.0206 81.2778L51.5228 81.904L52.0204 82.2996L52.5182 81.9043L52.0206 81.2778ZM43.9112 74.0554L44.4783 73.4912L44.4769 73.4898L43.9112 74.0554ZM43.7874 73.9225L44.4455 73.4676L44.2069 73.1225H43.7874V73.9225ZM33.3882 -0.79947C32.3548 -0.81652 31.3568 -0.421302 30.6182 0.29871L31.735 1.44443C32.1671 1.02322 32.7532 0.79027 33.3618 0.800312L33.3882 -0.79947ZM30.6183 0.298658C29.8789 1.01927 29.4617 2.00536 29.4617 3.03634H31.0617C31.0617 2.43847 31.3034 1.86508 31.735 1.44448L30.6183 0.298658ZM29.4617 3.03634C29.4617 4.06743 29.8789 5.05324 30.6178 5.77446L31.7354 4.62946C31.3034 4.20777 31.0617 3.63412 31.0617 3.03634H29.4617ZM30.6183 5.77487C31.3574 6.49521 32.3555 6.8892 33.3882 6.87216L33.3618 5.27238C32.7527 5.28243 32.1668 5.04994 31.735 4.62905L30.6183 5.77487ZM33.375 6.87227H35.9466V5.27227H33.375V6.87227ZM35.9466 6.87227C37.8954 6.87227 39.355 8.32937 39.355 10.2469H40.955C40.955 7.43357 38.7668 5.27227 35.9466 5.27227V6.87227ZM39.355 10.2469V13.0391H40.955V10.2469H39.355ZM39.6967 12.3834C34.1836 16.2376 30.5695 22.6061 30.5695 29.8019H32.1695C32.1695 23.1556 35.5059 17.2654 40.6134 13.6947L39.6967 12.3834ZM30.5695 29.8019V30.5901H32.1695V29.8019H30.5695ZM31.3695 29.7901H3.06051V31.3901H31.3695V29.7901ZM3.62502 30.0232L3.62416 30.0224L2.49515 31.1561L2.496 31.157L3.62502 30.0232ZM3.05966 29.7893C0.93378 29.7893 -0.8 31.5013 -0.8 33.6252H0.8C0.8 32.3965 1.80584 31.3893 3.05966 31.3893V29.7893ZM-0.8 33.6252C-0.8 47.4458 10.5907 58.6904 24.5314 58.6904V57.0904C11.4574 57.0904 0.8 46.5453 0.8 33.6252H-0.8ZM24.5314 58.6904C25.9371 58.6904 27.3168 58.5077 28.665 58.1645L28.2703 56.6139C27.0443 56.926 25.7971 57.0904 24.5314 57.0904V58.6904ZM27.6677 57.3892C27.6677 57.5731 27.6475 57.762 27.6209 58.0032C27.5958 58.2303 27.5644 58.5081 27.5644 58.798H29.1644C29.1644 58.6104 29.1846 58.4192 29.2112 58.1789C29.2362 57.9528 29.2677 57.6761 29.2677 57.3892H27.6677ZM27.5644 58.798C27.5644 62.7423 29.1039 66.4321 31.276 69.7801C33.4479 73.1278 36.2887 76.1887 38.9663 78.8813L40.1008 77.7531C37.4401 75.0775 34.6963 72.1123 32.6183 68.9092C30.5403 65.7064 29.1644 62.3207 29.1644 58.798H27.5644ZM38.9662 78.8812C42.7678 82.7052 46.551 85.7754 48.4485 87.2506L49.4306 85.9875C47.5626 84.5352 43.837 81.5113 40.1009 77.7532L38.9662 78.8812ZM48.1395 86.6191V88.9632H49.7395V86.6191H48.1395ZM48.1395 88.9624C48.1384 89.9826 48.5473 90.9591 49.2722 91.6782L50.399 90.5423C49.9752 90.1218 49.7389 89.5541 49.7395 88.9641L48.1395 88.9624ZM49.2718 91.6778C49.9961 92.3973 50.9784 92.8 52 92.8V91.2C51.3984 91.2 50.8222 90.9626 50.3995 90.5427L49.2718 91.6778ZM52 92.8C53.0216 92.8 54.0039 92.3973 54.7282 91.6778L53.6005 90.5427C53.1778 90.9626 52.6016 91.2 52 91.2V92.8ZM54.7278 91.6782C55.4527 90.9591 55.8616 89.9826 55.8605 88.9624L54.2605 88.9641C54.2611 89.5541 54.0248 90.1218 53.6009 90.5423L54.7278 91.6782ZM55.8605 88.9632V86.6191H54.2605V88.9632H55.8605ZM55.5515 87.2506C57.449 85.7754 61.2322 82.7054 65.0338 78.8812L63.8991 77.7532C60.163 81.5115 56.4374 84.5352 54.5695 85.9875L55.5515 87.2506ZM65.0337 78.8813C67.7114 76.1886 70.5522 73.1274 72.7241 69.7796C74.8961 66.4316 76.4356 62.7419 76.4356 58.798H74.8356C74.8356 62.3202 73.4597 65.7059 71.3818 68.9088C69.3037 72.112 66.56 75.0774 63.8992 77.7531L65.0337 78.8813ZM76.4356 58.798C76.4356 58.3421 76.4387 57.7831 76.3135 57.2166L74.7512 57.5618C74.8325 57.93 74.8356 58.3141 74.8356 58.798H76.4356ZM75.3406 58.1659C76.6801 58.4965 78.0582 58.6904 79.4686 58.6904V57.0904C78.2055 57.0904 76.9569 56.9169 75.7241 56.6125L75.3406 58.1659ZM79.4686 58.6904C93.4077 58.6904 104.8 47.4474 104.8 33.6252H103.2C103.2 46.5468 92.5411 57.0904 79.4686 57.0904V58.6904ZM104.8 33.6252C104.8 31.5013 103.066 29.7893 100.94 29.7893V31.3893C102.194 31.3893 103.2 32.3965 103.2 33.6252H104.8ZM100.94 29.7893H72.6313V31.3893H100.94V29.7893ZM73.4313 30.5893V29.8011H71.8313V30.5893H73.4313ZM73.4313 29.8011C73.4313 22.6052 69.8163 16.2367 64.3042 12.3826L63.3874 13.6939C68.4941 17.2645 71.8313 23.1548 71.8313 29.8011H73.4313ZM64.6458 13.0382V10.2461H63.0458V13.0382H64.6458ZM64.6458 10.2461C64.6458 8.32858 66.1054 6.87142 68.0543 6.87142V5.27142C65.2339 5.27142 63.0458 7.4328 63.0458 10.2461H64.6458ZM68.0543 6.87142H70.6258V5.27142H68.0543V6.87142ZM70.0624 5.50346L70.0616 5.50431L71.1884 6.64023L71.1892 6.63938L70.0624 5.50346ZM70.6118 6.87216C71.6446 6.8892 72.6428 6.49522 73.3818 5.77482L72.2649 4.6291C71.8332 5.04992 71.2474 5.28243 70.6382 5.27238L70.6118 6.87216ZM73.3822 5.77446C74.1211 5.05324 74.5383 4.06743 74.5383 3.03634H72.9383C72.9383 3.63412 72.6966 4.20777 72.2646 4.62946L73.3822 5.77446ZM74.5383 3.03634C74.5383 2.00536 74.1211 1.01927 73.3817 0.298658L72.265 1.44448C72.6966 1.86508 72.9383 2.43847 72.9383 3.03634H74.5383ZM73.3817 0.298658C72.643 -0.421281 71.6451 -0.816521 70.6118 -0.79947L70.6382 0.800312C71.2467 0.790271 71.8327 1.0232 72.265 1.44448L73.3817 0.298658ZM70.625 -0.799579H68.0534V0.800421H70.625V-0.799579ZM68.0534 -0.799579C61.9939 -0.799579 57.0015 4.09855 56.9251 10.1064L58.5249 10.1267C58.5901 5.00498 62.8592 0.800421 68.0534 0.800421V-0.799579ZM57.9446 9.3473C56.0495 8.80617 54.0461 8.50804 51.9727 8.50804V10.108C53.892 10.108 55.7477 10.3839 57.5053 10.8858L57.9446 9.3473ZM51.9727 8.50804C49.9014 8.50804 47.896 8.80523 46.0013 9.34742L46.4414 10.8857C48.1976 10.3831 50.055 10.108 51.9727 10.108V8.50804ZM47.0212 10.1017C46.9099 4.10169 41.9557 -0.799579 35.8929 -0.799579V0.800421C41.0821 0.800421 45.3263 5.00185 45.4215 10.1314L47.0212 10.1017ZM35.8929 -0.799579H33.375V0.800421H35.8929V-0.799579ZM52.0264 16.1807C59.6975 16.1807 65.7632 22.207 65.7632 29.8009H67.3632C67.3632 21.3112 60.569 14.5807 52.0264 14.5807V16.1807ZM65.7632 29.8009V30.5891H67.3632V29.8009H65.7632ZM66.5632 29.7891H37.4895V31.3891H66.5632V29.7891ZM38.2895 30.5891V29.8009H36.6895V30.5891H38.2895ZM38.2895 29.8009C38.2895 22.207 44.3561 16.1807 52.0264 16.1807V14.5807C43.4847 14.5807 36.6895 21.3112 36.6895 29.8009H38.2895ZM6.37405 37.4585H45.6357V35.8585H6.37405V37.4585ZM45.0309 36.1349C43.6235 37.7605 41.9101 39.6388 40.0061 41.5114L41.1281 42.6521C43.0698 40.7423 44.8128 38.8312 46.2405 37.1821L45.0309 36.1349ZM40.0059 41.5116C37.4433 44.034 34.5001 46.4293 31.7072 48.1881C28.8779 49.9697 26.3313 51.0151 24.5281 51.0151V52.6151C26.813 52.6151 29.6897 51.3494 32.5597 49.542C35.4661 47.7118 38.4984 45.2405 41.1283 42.6519L40.0059 41.5116ZM24.5281 51.0151C15.7564 51.0151 8.54901 44.7619 7.1614 36.5254L5.58363 36.7912C7.10142 45.8004 14.9778 52.6151 24.5281 52.6151V51.0151ZM6.25955 37.4503L6.26108 37.4505L6.48701 35.8665L6.48548 35.8663L6.25955 37.4503ZM58.4149 37.4585H97.6765V35.8585H58.4149V37.4585ZM96.8876 36.5256C95.5002 44.7627 88.2919 51.0154 79.5209 51.0154V52.6154C89.0703 52.6154 96.9478 45.8013 98.4654 36.7914L96.8876 36.5256ZM79.5209 51.0154C77.7182 51.0154 75.1715 49.9699 72.3421 48.1883C69.549 46.4295 66.6057 44.0342 64.0432 41.5118L62.9208 42.6521C65.5506 45.2407 68.5831 47.7121 71.4896 49.5422C74.3598 51.3496 77.2365 52.6154 79.5209 52.6154V51.0154ZM64.0431 41.5118C62.139 39.6381 60.4255 37.7596 59.018 36.1349L57.8087 37.1825C59.2362 38.8305 60.9792 40.7415 62.9208 42.6522L64.0431 41.5118ZM58.5244 37.451L58.5259 37.4508L58.3038 35.8662L58.3023 35.8665L58.5244 37.451ZM51.4076 39.0559C52.6478 40.5616 54.2933 42.4771 56.2159 44.5138L57.3794 43.4155C55.4868 41.4106 53.8654 39.5232 52.6426 38.0386L51.4076 39.0559ZM56.7976 43.1647H47.2534V44.7647H56.7976V43.1647ZM47.8351 44.5138C49.7577 42.477 51.4032 40.5605 52.6426 39.0559L51.4076 38.0386C50.1855 39.5223 48.564 41.4107 46.6716 43.4155L47.8351 44.5138ZM40.9805 50.8366H63.0714V49.2366H40.9805V50.8366ZM62.5448 50.6388C64.1849 52.0731 65.9223 53.4513 67.7462 54.6488L68.6243 53.3113C66.8791 52.1655 65.2011 50.8363 63.5981 49.4344L62.5448 50.6388ZM67.4687 54.3357C67.7841 54.9711 68.0376 55.5831 68.2314 56.1625L69.7487 55.6547C69.5295 54.9997 69.247 54.3198 68.9019 53.6244L67.4687 54.3357ZM68.9901 55.1086H35.0616V56.7086H68.9901V55.1086ZM35.8199 56.1637C36.0143 55.5858 36.2682 54.9693 36.5828 54.3361L35.15 53.624C34.8042 54.3199 34.522 55.0038 34.3034 55.6534L35.8199 56.1637ZM36.3055 54.6488C38.1294 53.4512 39.8668 52.0731 41.5069 50.6388L40.4537 49.4344C38.8506 50.8363 37.1726 52.1654 35.4274 53.3113L36.3055 54.6488ZM40.9803 50.8366H40.9805V49.2366H40.9803V50.8366ZM35.2417 62.7796H68.8097V61.1796H35.2417V62.7796ZM68.0658 61.6854C67.3873 63.401 66.2286 65.3687 64.7761 67.3829L66.0738 68.3187C67.5691 66.2453 68.8086 64.1579 69.5536 62.2738L68.0658 61.6854ZM65.4249 67.0508H38.6278V68.6508H65.4249V67.0508ZM39.2766 67.3827C37.8248 65.3705 36.6687 63.4013 35.9865 61.6842L34.4996 62.2749C35.2476 64.1577 36.483 66.2454 37.9791 68.3189L39.2766 67.3827ZM35.2431 61.1796H35.2417V62.7796H35.2431V61.1796ZM43.7873 74.7225H60.2641V73.1225H43.7873V74.7225ZM60.2641 73.9225C59.6984 73.3569 59.6984 73.3569 59.6984 73.3569C59.6984 73.3569 59.6984 73.3569 59.6984 73.3569C59.6984 73.3569 59.6984 73.3569 59.6983 73.3569C59.6983 73.357 59.6982 73.357 59.6981 73.3571C59.698 73.3573 59.6977 73.3576 59.6973 73.3579C59.6966 73.3587 59.6955 73.3598 59.6941 73.3612C59.6913 73.364 59.6872 73.368 59.6823 73.373C59.6723 73.383 59.6587 73.3965 59.6442 73.4109C59.6129 73.442 59.5845 73.4702 59.5748 73.4796L60.6855 74.6313C60.7064 74.6111 60.745 74.5727 60.7731 74.5448C60.7882 74.5297 60.8024 74.5156 60.8128 74.5052C60.8179 74.5001 60.8222 74.4958 60.8251 74.4929C60.8266 74.4914 60.8278 74.4902 60.8286 74.4894C60.829 74.489 60.8293 74.4887 60.8295 74.4885C60.8296 74.4884 60.8297 74.4883 60.8298 74.4883C60.8298 74.4882 60.8298 74.4882 60.8298 74.4882C60.8298 74.4882 60.8298 74.4882 60.8298 74.4882C60.8298 74.4882 60.8298 74.4882 60.8298 74.4882C60.8298 74.4882 60.8298 74.4882 60.2641 73.9225ZM59.5629 73.4912C56.4874 76.5831 53.4006 79.1603 51.5231 80.6513L52.5182 81.9043C54.4249 80.39 57.5631 77.7704 60.6973 74.6196L59.5629 73.4912ZM52.5185 80.6515C50.6424 79.1602 47.5547 76.5831 44.4783 73.4912L43.3441 74.6197C46.4791 77.7705 49.6181 80.3899 51.5228 81.904L52.5185 80.6515ZM43.9112 74.0554C44.4769 73.4898 44.4769 73.4898 44.4769 73.4898C44.4769 73.4898 44.4769 73.4898 44.4769 73.4898C44.4769 73.4898 44.4769 73.4898 44.477 73.4899C44.477 73.4899 44.477 73.4899 44.477 73.4899C44.477 73.4899 44.477 73.4899 44.477 73.4899C44.4769 73.4898 44.4768 73.4897 44.4765 73.4894C44.4761 73.489 44.4753 73.4882 44.4741 73.487C44.4719 73.4848 44.4686 73.4814 44.4644 73.4772C44.4559 73.4686 44.4449 73.4573 44.4337 73.4457C44.422 73.4335 44.4131 73.424 44.4079 73.4183C44.3915 73.4002 44.4162 73.4252 44.4455 73.4676L43.1293 74.3774C43.1853 74.4583 43.2724 74.5464 43.2802 74.5545C43.2974 74.5724 43.3135 74.5888 43.325 74.6005C43.3308 74.6064 43.3357 74.6113 43.3392 74.6148C43.341 74.6166 43.3424 74.618 43.3434 74.6191C43.344 74.6196 43.3444 74.6201 43.3447 74.6204C43.3449 74.6206 43.3451 74.6207 43.3452 74.6208C43.3452 74.6209 43.3453 74.6209 43.3453 74.621C43.3453 74.621 43.3454 74.621 43.3454 74.621C43.3454 74.621 43.3454 74.6211 43.3454 74.6211C43.3454 74.6211 43.3454 74.6211 43.9112 74.0554ZM43.7874 73.1225H43.7873V74.7225H43.7874V73.1225Z" fill="white" mask="url(#path-1-inside-1_94_2449)"/>
</svg>
